# xmcd CD database file
#
# Track frame offsets:
#	150
#	51441
#	113123
#	131350
#	151600
#	182784
#	199690
#	216922
#	233571
#	245910
#	271161
#
# Disc length: 3821 seconds
#
# Revision: 0
# Processed by: cddbd v1.5.2PL0 Copyright (c) Steve Scherf et al.
# Submitted via: CDex 1.70beta2
#
DISCID=970eeb0b
DTITLE=Dexter Grodon - Bebop Story Vol 3 1952-53
DYEAR=2008
DGENRE=Jazz
TTITLE0=The Chase
TTITLE1=The Steeplechase
TTITLE2=Silver Plated
TTITLE3=Rhythm Mad
TTITLE4=Bonna Rue
TTITLE5=Cry Me A River
TTITLE6=Don't Worry 'Bout Me
TTITLE7=I Hear Music
TTITLE8=I Should Care
TTITLE9=Blowin' For Dootsie
TTITLE10=Tenderly
EXTD=YEAR: 2008
EXTT0=
EXTT1=
EXTT2=
EXTT3=
EXTT4=
EXTT5=
EXTT6=
EXTT7=
EXTT8=
EXTT9=
EXTT10=
PLAYORDER=
